<?xml version="1.0" standalone="no"?>
<!DOCTYPE svg PUBLIC "-//W3C//DTD SVG 20010904//EN"
 "http://www.w3.org/TR/2001/REC-SVG-20010904/DTD/svg10.dtd">
<svg version="1.0" xmlns="http://www.w3.org/2000/svg"
 width="1400.000000pt" height="1400.000000pt" viewBox="0 0 1400.000000 1400.000000"
 preserveAspectRatio="xMidYMid meet">
<metadata>
Created by potrace 1.11, written by Peter Selinger 2001-2013
</metadata>
<g transform="translate(0.000000,1400.000000) scale(0.100000,-0.100000)"
fill="#000000" stroke="none">
<path d="M8 8555 c-5 0 -4 -3055 1 -3056 33 -7 604 -2 609 5 3 5 5 306 5 668
l0 658 21 1 c29 0 1136 0 1163 0 l21 -1 1 -617 c0 -340 0 -641 0 -668 l1 -50
303 1 c166 1 305 2 308 3 9 1 9 3051 0 3052 -3 1 -142 2 -308 3 l-303 1 -1
-40 c0 -22 -1 -292 -2 -600 l-2 -560 -601 -1 -601 -1 1 598 c1 330 -1 600 -4
600 -4 1 -603 5 -612 4z"/>
<path d="M3195 8500 c-24 -9 -102 -121 -100 -144 2 -18 43 -123 123 -321 9
-22 22 -46 29 -53 19 -19 200 -19 219 0 24 23 172 377 167 397 -7 28 -100 121
-123 122 -91 4 -304 3 -315 -1z"/>
<path d="M3246 7821 c-3 -14 -8 -51 -11 -81 -4 -55 -12 -125 -20 -190 -3 -19
-7 -62 -10 -95 -3 -33 -8 -76 -10 -95 -2 -19 -7 -60 -10 -90 -3 -30 -8 -71
-10 -90 -3 -19 -7 -62 -10 -95 -3 -33 -7 -73 -9 -90 -2 -16 -7 -61 -11 -100
-4 -38 -8 -81 -10 -95 -2 -14 -7 -52 -10 -85 -3 -33 -8 -76 -10 -95 -2 -19 -7
-64 -10 -100 -4 -36 -8 -76 -10 -90 -2 -14 -6 -54 -10 -90 -3 -36 -7 -81 -10
-100 -2 -19 -7 -64 -11 -100 -3 -36 -8 -72 -9 -80 -2 -8 -6 -49 -9 -90 -4 -41
-9 -92 -12 -114 -5 -37 -3 -41 74 -115 208 -201 253 -242 262 -239 7 2 185
168 312 290 31 30 34 53 19 153 -5 33 -12 80 -15 105 -3 25 -8 59 -11 75 -6
43 -15 113 -21 165 -4 43 -9 82 -19 160 -3 19 -7 53 -9 75 -3 22 -10 78 -16
125 -6 47 -13 101 -15 120 -3 19 -11 94 -20 165 -21 179 -26 216 -30 245 -2
14 -7 52 -10 85 -4 33 -8 71 -10 85 -7 45 -15 104 -19 145 -21 175 -36 292
-41 320 -2 11 -4 23 -4 27 -1 4 -48 7 -105 6 l-105 0 -5 -27z"/>
<path d="M5275 7763 c-134 -13 -230 -51 -300 -118 -36 -34 -129 -148 -154
-187 -12 -21 -26 -38 -30 -38 -4 0 -6 65 -6 145 1 112 -2 145 -12 146 -7 0
-123 0 -258 0 -135 0 -252 0 -260 0 -13 -1 -15 -128 -13 -1108 l3 -1108 280
-1 c154 0 285 2 291 4 9 2 12 139 13 500 2 712 10 824 69 987 31 88 60 133
113 178 103 89 275 91 428 6 29 -17 54 -29 56 -27 1 2 28 77 60 168 32 91 73
205 91 253 l32 88 -51 27 c-73 37 -181 71 -252 78 -33 3 -62 7 -65 8 -3 1 -18
0 -35 -1z"/>
<path d="M6737 7764 c-1 -1 -31 -4 -67 -7 -172 -15 -309 -62 -447 -153 -262
-174 -424 -462 -460 -821 -13 -128 -6 -410 12 -473 2 -8 7 -27 10 -42 13 -68
17 -84 41 -156 30 -88 90 -209 140 -279 83 -116 224 -233 349 -288 67 -30 205
-71 264 -79 22 -3 60 -9 84 -12 57 -8 236 -8 321 0 92 10 240 48 312 82 140
65 250 152 337 266 53 70 139 228 152 280 6 24 4 25 -72 37 -43 7 -89 14 -103
17 -14 2 -41 7 -60 10 -19 3 -71 12 -115 19 -225 40 -235 41 -235 20 0 -30
-61 -146 -98 -187 -67 -75 -154 -110 -271 -109 -95 1 -129 9 -209 49 -143 72
-242 234 -258 419 l-6 78 723 -1 c398 0 729 3 735 8 14 10 6 279 -11 369 -3
13 -7 41 -10 64 -10 64 -44 191 -71 264 -134 356 -445 588 -827 616 -122 9
-157 11 -160 9z m187 -470 c97 -34 171 -89 225 -168 38 -55 78 -176 86 -261
l7 -70 -434 1 c-238 1 -436 2 -439 3 -7 1 7 129 21 181 41 152 153 272 295
316 54 16 189 15 239 -2z"/>
<path d="M9468 7765 c-2 -1 -34 -5 -73 -9 -108 -10 -204 -40 -305 -94 -71 -38
-186 -130 -240 -190 -58 -65 -52 -79 -52 121 0 116 -1 117 -24 118 -13 0 -105
0 -204 0 -99 0 -210 0 -248 0 l-67 -1 0 -1107 0 -1108 293 0 c255 0 292 1 293
15 0 8 2 301 3 650 3 642 6 707 32 815 54 219 223 347 443 333 121 -8 202 -67
237 -172 33 -98 36 -176 38 -951 l1 -690 289 0 c186 0 290 3 292 10 2 5 5 303
8 660 2 358 7 670 10 695 35 239 138 381 315 434 162 48 327 -19 374 -151 17
-49 20 -65 33 -163 4 -30 8 -374 9 -765 2 -390 3 -712 4 -715 0 -3 132 -5 291
-5 252 0 290 2 291 15 4 102 -1 1546 -6 1605 -10 124 -32 214 -70 290 -113
230 -330 351 -635 357 -232 4 -431 -85 -624 -278 -37 -38 -70 -64 -73 -58 -8
23 -81 114 -122 154 -53 52 -152 116 -200 131 -106 31 -141 40 -196 45 -33 3
-72 7 -87 8 -15 2 -29 2 -30 1z"/>
<path d="M12917 7764 c-1 -1 -37 -4 -80 -8 -240 -20 -435 -111 -601 -281 -221
-226 -317 -514 -310 -925 4 -235 41 -404 126 -575 130 -261 328 -420 610 -489
125 -31 191 -38 328 -39 449 0 751 178 926 547 25 53 43 100 40 105 -3 5 -26
12 -52 16 -25 3 -56 8 -67 11 -68 13 -438 74 -451 74 -9 0 -16 -7 -16 -15 0
-30 -66 -150 -105 -191 -73 -75 -147 -105 -264 -105 -178 0 -332 96 -411 257
-37 77 -68 214 -61 279 1 7 248 10 731 10 l730 0 1 40 c2 63 -2 198 -6 225 -2
14 -7 54 -10 90 -4 36 -9 74 -12 85 -2 11 -8 44 -14 73 -6 29 -21 88 -35 130
-128 398 -430 639 -849 677 -74 7 -145 11 -148 9z m215 -484 c111 -44 215
-166 248 -290 23 -85 33 -171 23 -185 -11 -14 -863 -14 -864 0 -1 16 2 91 5
106 2 8 6 32 11 54 29 154 173 304 319 335 69 15 195 5 258 -20z"/>
</g>
</svg>
